<svg xmlns="http://www.w3.org/2000/svg" xmlns:xlink="http://www.w3.org/1999/xlink" style="isolation:isolate" viewBox="0 0 157 32.684" width="157" height="32.684"><defs><clipPath id="_clipPath_KxWDife6sKbajVKTQN672nVenHIOxZwd"><rect width="157" height="32.684"/></clipPath></defs><g clip-path="url(#_clipPath_KxWDife6sKbajVKTQN672nVenHIOxZwd)"><path d=" M 77.074 11.297 L 77.074 11.297 L 77.074 11.297 Q 75.023 11.297 73.898 12.838 L 73.898 12.838 L 73.898 12.838 Q 72.773 14.379 72.773 17.133 L 72.773 17.133 L 72.773 17.133 Q 72.773 22.863 77.074 22.863 L 77.074 22.863 L 77.074 22.863 Q 78.879 22.863 81.445 21.961 L 81.445 21.961 L 81.445 25.008 L 81.445 25.008 Q 79.336 25.887 76.734 25.887 L 76.734 25.887 L 76.734 25.887 Q 72.996 25.887 71.016 23.619 L 71.016 23.619 L 71.016 23.619 Q 69.035 21.352 69.035 17.109 L 69.035 17.109 L 69.035 17.109 Q 69.035 14.438 70.008 12.428 L 70.008 12.428 L 70.008 12.428 Q 70.98 10.418 72.803 9.346 L 72.803 9.346 L 72.803 9.346 Q 74.625 8.273 77.074 8.273 L 77.074 8.273 L 77.074 8.273 Q 79.57 8.273 82.09 9.48 L 82.09 9.48 L 80.918 12.434 L 80.918 12.434 Q 79.957 11.977 78.984 11.637 L 78.984 11.637 L 78.984 11.637 Q 78.012 11.297 77.074 11.297 Z  M 96.902 17.109 L 96.902 25.652 L 93.328 25.652 L 93.328 18 L 93.328 18 Q 93.328 15.164 91.219 15.164 L 91.219 15.164 L 91.219 15.164 Q 89.719 15.164 89.051 16.184 L 89.051 16.184 L 89.051 16.184 Q 88.383 17.203 88.383 19.488 L 88.383 19.488 L 88.383 25.652 L 84.809 25.652 L 84.809 7.418 L 88.383 7.418 L 88.383 11.133 L 88.383 11.133 Q 88.383 11.566 88.301 13.172 L 88.301 13.172 L 88.219 14.227 L 88.406 14.227 L 88.406 14.227 Q 89.602 12.305 92.203 12.305 L 92.203 12.305 L 92.203 12.305 Q 94.512 12.305 95.707 13.547 L 95.707 13.547 L 95.707 13.547 Q 96.902 14.789 96.902 17.109 L 96.902 17.109 L 96.902 17.109 Z  M 103.43 19.078 L 103.43 19.078 L 103.43 19.078 Q 103.43 21.023 104.068 22.02 L 104.068 22.02 L 104.068 22.02 Q 104.707 23.016 106.148 23.016 L 106.148 23.016 L 106.148 23.016 Q 107.578 23.016 108.205 22.025 L 108.205 22.025 L 108.205 22.025 Q 108.832 21.035 108.832 19.078 L 108.832 19.078 L 108.832 19.078 Q 108.832 17.133 108.199 16.16 L 108.199 16.16 L 108.199 16.16 Q 107.566 15.188 106.125 15.188 L 106.125 15.188 L 106.125 15.188 Q 104.695 15.188 104.063 16.154 L 104.063 16.154 L 104.063 16.154 Q 103.43 17.121 103.43 19.078 Z  M 112.488 19.078 L 112.488 19.078 L 112.488 19.078 Q 112.488 22.277 110.801 24.082 L 110.801 24.082 L 110.801 24.082 Q 109.113 25.887 106.102 25.887 L 106.102 25.887 L 106.102 25.887 Q 104.215 25.887 102.773 25.061 L 102.773 25.061 L 102.773 25.061 Q 101.332 24.234 100.559 22.688 L 100.559 22.688 L 100.559 22.688 Q 99.785 21.141 99.785 19.078 L 99.785 19.078 L 99.785 19.078 Q 99.785 15.867 101.461 14.086 L 101.461 14.086 L 101.461 14.086 Q 103.137 12.305 106.172 12.305 L 106.172 12.305 L 106.172 12.305 Q 108.059 12.305 109.5 13.125 L 109.5 13.125 L 109.5 13.125 Q 110.941 13.945 111.715 15.48 L 111.715 15.48 L 111.715 15.48 Q 112.488 17.016 112.488 19.078 Z  M 122.637 25.887 L 122.637 25.887 L 122.637 25.887 Q 120.328 25.887 119.016 24.211 L 119.016 24.211 L 118.828 24.211 L 118.828 24.211 Q 119.016 25.852 119.016 26.109 L 119.016 26.109 L 119.016 31.418 L 115.441 31.418 L 115.441 12.551 L 118.348 12.551 L 118.852 14.25 L 119.016 14.25 L 119.016 14.25 Q 120.27 12.305 122.73 12.305 L 122.73 12.305 L 122.73 12.305 Q 125.051 12.305 126.363 14.098 L 126.363 14.098 L 126.363 14.098 Q 127.676 15.891 127.676 19.078 L 127.676 19.078 L 127.676 19.078 Q 127.676 21.176 127.061 22.723 L 127.061 22.723 L 127.061 22.723 Q 126.445 24.27 125.309 25.078 L 125.309 25.078 L 125.309 25.078 Q 124.172 25.887 122.637 25.887 Z  M 121.582 15.164 L 121.582 15.164 L 121.582 15.164 Q 120.258 15.164 119.648 15.979 L 119.648 15.979 L 119.648 15.979 Q 119.039 16.793 119.016 18.668 L 119.016 18.668 L 119.016 19.055 L 119.016 19.055 Q 119.016 21.164 119.643 22.078 L 119.643 22.078 L 119.643 22.078 Q 120.27 22.992 121.629 22.992 L 121.629 22.992 L 121.629 22.992 Q 124.031 22.992 124.031 19.031 L 124.031 19.031 L 124.031 19.031 Q 124.031 17.098 123.439 16.131 L 123.439 16.131 L 123.439 16.131 Q 122.848 15.164 121.582 15.164 Z  M 137.941 12.305 L 137.941 12.305 L 137.941 12.305 Q 138.668 12.305 139.148 12.41 L 139.148 12.41 L 138.879 15.762 L 138.879 15.762 Q 138.445 15.645 137.824 15.645 L 137.824 15.645 L 137.824 15.645 Q 136.113 15.645 135.158 16.523 L 135.158 16.523 L 135.158 16.523 Q 134.203 17.402 134.203 18.984 L 134.203 18.984 L 134.203 25.652 L 130.629 25.652 L 130.629 12.551 L 133.336 12.551 L 133.863 14.754 L 134.039 14.754 L 134.039 14.754 Q 134.648 13.652 135.686 12.979 L 135.686 12.979 L 135.686 12.979 Q 136.723 12.305 137.941 12.305 Z  M 152.344 25.652 L 149.848 25.652 L 149.156 23.871 L 149.063 23.871 L 149.063 23.871 Q 148.16 25.008 147.205 25.447 L 147.205 25.447 L 147.205 25.447 Q 146.25 25.887 144.715 25.887 L 144.715 25.887 L 144.715 25.887 Q 142.828 25.887 141.744 24.809 L 141.744 24.809 L 141.744 24.809 Q 140.66 23.73 140.66 21.738 L 140.66 21.738 L 140.66 21.738 Q 140.66 19.652 142.119 18.662 L 142.119 18.662 L 142.119 18.662 Q 143.578 17.672 146.52 17.566 L 146.52 17.566 L 148.793 17.496 L 148.793 16.922 L 148.793 16.922 Q 148.793 14.93 146.754 14.93 L 146.754 14.93 L 146.754 14.93 Q 145.184 14.93 143.063 15.879 L 143.063 15.879 L 141.879 13.465 L 141.879 13.465 Q 144.141 12.281 146.895 12.281 L 146.895 12.281 L 146.895 12.281 Q 149.531 12.281 150.938 13.43 L 150.938 13.43 L 150.938 13.43 Q 152.344 14.578 152.344 16.922 L 152.344 16.922 L 152.344 25.652 L 152.344 25.652 Z  M 148.793 20.66 L 148.793 19.582 L 147.41 19.629 L 147.41 19.629 Q 145.852 19.676 145.09 20.191 L 145.09 20.191 L 145.09 20.191 Q 144.328 20.707 144.328 21.762 L 144.328 21.762 L 144.328 21.762 Q 144.328 23.273 146.063 23.273 L 146.063 23.273 L 146.063 23.273 Q 147.305 23.273 148.049 22.559 L 148.049 22.559 L 148.049 22.559 Q 148.793 21.844 148.793 20.66 L 148.793 20.66 L 148.793 20.66 Z  M 12.738 25.652 L 9.41 25.652 L 5.285 12.211 L 5.18 12.211 L 5.18 12.211 Q 5.402 16.313 5.402 17.684 L 5.402 17.684 L 5.402 25.652 L 2.156 25.652 L 2.156 8.52 L 7.102 8.52 L 11.156 21.621 L 11.227 21.621 L 15.527 8.52 L 20.473 8.52 L 20.473 25.652 L 17.086 25.652 L 17.086 17.543 L 17.086 17.543 Q 17.086 16.969 17.104 16.219 L 17.104 16.219 L 17.104 16.219 Q 17.121 15.469 17.262 12.234 L 17.262 12.234 L 17.156 12.234 L 12.738 25.652 L 12.738 25.652 Z  M 29.93 14.848 L 29.93 14.848 L 29.93 14.848 Q 28.793 14.848 28.148 15.568 L 28.148 15.568 L 28.148 15.568 Q 27.504 16.289 27.41 17.613 L 27.41 17.613 L 32.426 17.613 L 32.426 17.613 Q 32.402 16.289 31.734 15.568 L 31.734 15.568 L 31.734 15.568 Q 31.066 14.848 29.93 14.848 Z  M 30.434 25.887 L 30.434 25.887 L 30.434 25.887 Q 27.27 25.887 25.488 24.141 L 25.488 24.141 L 25.488 24.141 Q 23.707 22.395 23.707 19.195 L 23.707 19.195 L 23.707 19.195 Q 23.707 15.902 25.354 14.104 L 25.354 14.104 L 25.354 14.104 Q 27 12.305 29.906 12.305 L 29.906 12.305 L 29.906 12.305 Q 32.684 12.305 34.23 13.887 L 34.23 13.887 L 34.23 13.887 Q 35.777 15.469 35.777 18.258 L 35.777 18.258 L 35.777 19.992 L 27.328 19.992 L 27.328 19.992 Q 27.387 21.516 28.23 22.371 L 28.23 22.371 L 28.23 22.371 Q 29.074 23.227 30.598 23.227 L 30.598 23.227 L 30.598 23.227 Q 31.781 23.227 32.836 22.98 L 32.836 22.98 L 32.836 22.98 Q 33.891 22.734 35.039 22.195 L 35.039 22.195 L 35.039 24.961 L 35.039 24.961 Q 34.102 25.43 33.035 25.658 L 33.035 25.658 L 33.035 25.658 Q 31.969 25.887 30.434 25.887 Z  M 44.109 14.848 L 44.109 14.848 L 44.109 14.848 Q 42.973 14.848 42.328 15.568 L 42.328 15.568 L 42.328 15.568 Q 41.684 16.289 41.59 17.613 L 41.59 17.613 L 46.605 17.613 L 46.605 17.613 Q 46.582 16.289 45.914 15.568 L 45.914 15.568 L 45.914 15.568 Q 45.246 14.848 44.109 14.848 Z  M 44.613 25.887 L 44.613 25.887 L 44.613 25.887 Q 41.449 25.887 39.668 24.141 L 39.668 24.141 L 39.668 24.141 Q 37.887 22.395 37.887 19.195 L 37.887 19.195 L 37.887 19.195 Q 37.887 15.902 39.533 14.104 L 39.533 14.104 L 39.533 14.104 Q 41.18 12.305 44.086 12.305 L 44.086 12.305 L 44.086 12.305 Q 46.863 12.305 48.41 13.887 L 48.41 13.887 L 48.41 13.887 Q 49.957 15.469 49.957 18.258 L 49.957 18.258 L 49.957 19.992 L 41.508 19.992 L 41.508 19.992 Q 41.566 21.516 42.41 22.371 L 42.41 22.371 L 42.41 22.371 Q 43.254 23.227 44.777 23.227 L 44.777 23.227 L 44.777 23.227 Q 45.961 23.227 47.016 22.98 L 47.016 22.98 L 47.016 22.98 Q 48.07 22.734 49.219 22.195 L 49.219 22.195 L 49.219 24.961 L 49.219 24.961 Q 48.281 25.43 47.215 25.658 L 47.215 25.658 L 47.215 25.658 Q 46.148 25.887 44.613 25.887 Z  M 58.383 23.039 L 58.383 23.039 L 58.383 23.039 Q 59.32 23.039 60.633 22.629 L 60.633 22.629 L 60.633 25.289 L 60.633 25.289 Q 59.297 25.887 57.352 25.887 L 57.352 25.887 L 57.352 25.887 Q 55.207 25.887 54.229 24.803 L 54.229 24.803 L 54.229 24.803 Q 53.25 23.719 53.25 21.551 L 53.25 21.551 L 53.25 15.234 L 51.539 15.234 L 51.539 13.723 L 53.508 12.527 L 54.539 9.762 L 56.824 9.762 L 56.824 12.551 L 60.492 12.551 L 60.492 15.234 L 56.824 15.234 L 56.824 21.551 L 56.824 21.551 Q 56.824 22.313 57.252 22.676 L 57.252 22.676 L 57.252 22.676 Q 57.68 23.039 58.383 23.039 Z " fill-rule="evenodd" fill="rgb(255,68,0)"/></g></svg>
