<svg xmlns="http://www.w3.org/2000/svg" xmlns:xlink="http://www.w3.org/1999/xlink" style="isolation:isolate" viewBox="0 0 127 24.2" width="127" height="24.2"><defs><clipPath id="_clipPath_U0Xg4RgyxCWFl0I6UyrB2FwwwiuVKphI"><rect width="127" height="24.2"/></clipPath></defs><g clip-path="url(#_clipPath_U0Xg4RgyxCWFl0I6UyrB2FwwwiuVKphI)"><path d=" M 64.32 15.64 L 64.32 15.64 L 64.68 15.38 L 64.68 15.38 Q 65.36 14.98 65.64 14.98 L 65.64 14.98 L 65.64 14.98 Q 66.26 14.98 66.98 16.1 L 66.98 16.1 L 66.98 16.1 Q 67.42 16.8 67.42 17.22 L 67.42 17.22 L 67.42 17.22 Q 67.42 17.64 67.15 17.92 L 67.15 17.92 L 67.15 17.92 Q 66.88 18.2 66.52 18.42 L 66.52 18.42 L 66.52 18.42 Q 66.16 18.64 65.83 18.84 L 65.83 18.84 L 65.83 18.84 Q 65.5 19.04 64.48 19.36 L 64.48 19.36 L 64.48 19.36 Q 63.46 19.68 62.51 19.68 L 62.51 19.68 L 62.51 19.68 Q 61.56 19.68 60.59 19.43 L 60.59 19.43 L 60.59 19.43 Q 59.62 19.18 58.59 18.59 L 58.59 18.59 L 58.59 18.59 Q 57.56 18 56.74 17.15 L 56.74 17.15 L 56.74 17.15 Q 55.92 16.3 55.39 14.97 L 55.39 14.97 L 55.39 14.97 Q 54.86 13.64 54.86 12.08 L 54.86 12.08 L 54.86 12.08 Q 54.86 10.52 55.38 9.25 L 55.38 9.25 L 55.38 9.25 Q 55.9 7.98 56.71 7.15 L 56.71 7.15 L 56.71 7.15 Q 57.52 6.32 58.56 5.76 L 58.56 5.76 L 58.56 5.76 Q 60.52 4.68 62.5 4.68 L 62.5 4.68 L 62.5 4.68 Q 63.44 4.68 64.41 4.97 L 64.41 4.97 L 64.41 4.97 Q 65.38 5.26 65.88 5.56 L 65.88 5.56 L 66.36 5.84 L 66.36 5.84 Q 66.72 6.06 66.92 6.2 L 66.92 6.2 L 66.92 6.2 Q 67.44 6.62 67.44 7.15 L 67.44 7.15 L 67.44 7.15 Q 67.44 7.68 67.02 8.26 L 67.02 8.26 L 67.02 8.26 Q 66.24 9.34 65.62 9.34 L 65.62 9.34 L 65.62 9.34 Q 65.26 9.34 64.6 8.9 L 64.6 8.9 L 64.6 8.9 Q 63.76 8.22 62.36 8.22 L 62.36 8.22 L 62.36 8.22 Q 61.06 8.22 59.8 9.12 L 59.8 9.12 L 59.8 9.12 Q 59.2 9.56 58.8 10.36 L 58.8 10.36 L 58.8 10.36 Q 58.4 11.16 58.4 12.17 L 58.4 12.17 L 58.4 12.17 Q 58.4 13.18 58.8 13.98 L 58.8 13.98 L 58.8 13.98 Q 59.2 14.78 59.82 15.24 L 59.82 15.24 L 59.82 15.24 Q 61.04 16.12 62.36 16.12 L 62.36 16.12 L 62.36 16.12 Q 62.98 16.12 63.53 15.96 L 63.53 15.96 L 63.53 15.96 Q 64.08 15.8 64.32 15.64 Z  M 74.58 8.98 L 74.58 8.98 L 74.58 8.98 Q 76.58 8.98 77.91 10.5 L 77.91 10.5 L 77.91 10.5 Q 79.24 12.02 79.24 14.22 L 79.24 14.22 L 79.24 17.74 L 79.24 17.74 Q 79.24 18.2 79.21 18.43 L 79.21 18.43 L 79.21 18.43 Q 79.18 18.66 79.02 18.96 L 79.02 18.96 L 79.02 18.96 Q 78.76 19.48 77.48 19.48 L 77.48 19.48 L 77.48 19.48 Q 76.26 19.48 75.96 18.96 L 75.96 18.96 L 75.96 18.96 Q 75.8 18.66 75.77 18.42 L 75.77 18.42 L 75.77 18.42 Q 75.74 18.18 75.74 17.7 L 75.74 17.7 L 75.74 14.2 L 75.74 14.2 Q 75.74 13.38 75.28 12.92 L 75.28 12.92 L 75.28 12.92 Q 74.82 12.46 74.11 12.46 L 74.11 12.46 L 74.11 12.46 Q 73.4 12.46 72.86 12.89 L 72.86 12.89 L 72.86 12.89 Q 72.32 13.32 72.24 13.86 L 72.24 13.86 L 72.24 17.74 L 72.24 17.74 Q 72.24 18.2 72.21 18.43 L 72.21 18.43 L 72.21 18.43 Q 72.18 18.66 72.02 18.96 L 72.02 18.96 L 72.02 18.96 Q 71.76 19.48 70.48 19.48 L 70.48 19.48 L 70.48 19.48 Q 69.22 19.48 68.94 18.94 L 68.94 18.94 L 68.94 18.94 Q 68.8 18.64 68.77 18.42 L 68.77 18.42 L 68.77 18.42 Q 68.74 18.2 68.74 17.72 L 68.74 17.72 L 68.74 5.76 L 68.74 5.76 Q 68.74 5.3 68.77 5.07 L 68.77 5.07 L 68.77 5.07 Q 68.8 4.84 68.94 4.56 L 68.94 4.56 L 68.94 4.56 Q 69.22 4.02 70.5 4.02 L 70.5 4.02 L 70.5 4.02 Q 71.76 4.02 72.02 4.56 L 72.02 4.56 L 72.02 4.56 Q 72.18 4.86 72.21 5.09 L 72.21 5.09 L 72.21 5.09 Q 72.24 5.32 72.24 5.78 L 72.24 5.78 L 72.24 10.2 L 72.24 10.2 Q 73.24 8.98 74.58 8.98 Z  M 80.54 14.22 L 80.54 14.22 Q 80.54 11.82 82.22 10.26 L 82.22 10.26 L 82.22 10.26 Q 83.9 8.7 86.06 8.7 L 86.06 8.7 L 86.06 8.7 Q 88.22 8.7 89.88 10.25 L 89.88 10.25 L 89.88 10.25 Q 91.54 11.8 91.54 14.2 L 91.54 14.2 L 91.54 14.2 Q 91.54 15.86 90.68 17.15 L 90.68 17.15 L 90.68 17.15 Q 89.82 18.44 88.59 19.05 L 88.59 19.05 L 88.59 19.05 Q 87.36 19.66 86.04 19.66 L 86.04 19.66 L 86.04 19.66 Q 84.72 19.66 83.48 19.01 L 83.48 19.01 L 83.48 19.01 Q 82.24 18.36 81.39 17.09 L 81.39 17.09 L 81.39 17.09 Q 80.54 15.82 80.54 14.22 L 80.54 14.22 L 80.54 14.22 Z  M 84.72 15.65 L 84.72 15.65 L 84.72 15.65 Q 85.36 16.14 86.02 16.14 L 86.02 16.14 L 86.02 16.14 Q 86.68 16.14 87.34 15.64 L 87.34 15.64 L 87.34 15.64 Q 88 15.14 88 14.16 L 88 14.16 L 88 14.16 Q 88 13.18 87.38 12.7 L 87.38 12.7 L 87.38 12.7 Q 86.76 12.22 86.04 12.22 L 86.04 12.22 L 86.04 12.22 Q 85.32 12.22 84.7 12.72 L 84.7 12.72 L 84.7 12.72 Q 84.08 13.22 84.08 14.19 L 84.08 14.19 L 84.08 14.19 Q 84.08 15.16 84.72 15.65 Z  M 92.84 22.34 L 92.84 22.34 L 92.84 10.66 L 92.84 10.66 Q 92.84 10.2 92.87 9.98 L 92.87 9.98 L 92.87 9.98 Q 92.9 9.76 93.04 9.48 L 93.04 9.48 L 93.04 9.48 Q 93.32 8.94 94.38 8.94 L 94.38 8.94 L 94.38 8.94 Q 95.44 8.94 95.81 9.21 L 95.81 9.21 L 95.81 9.21 Q 96.18 9.48 96.24 10 L 96.24 10 L 96.24 10 Q 97 8.96 98.63 8.96 L 98.63 8.96 L 98.63 8.96 Q 100.26 8.96 101.72 10.5 L 101.72 10.5 L 101.72 10.5 Q 103.18 12.04 103.18 14.08 L 103.18 14.08 L 103.18 14.08 Q 103.18 16.12 101.73 17.66 L 101.73 17.66 L 101.73 17.66 Q 100.28 19.2 98.64 19.2 L 98.64 19.2 L 98.64 19.2 Q 97 19.2 96.26 18.28 L 96.26 18.28 L 96.26 22.32 L 96.26 22.32 Q 96.26 22.78 96.23 23 L 96.23 23 L 96.23 23 Q 96.2 23.22 96.05 23.51 L 96.05 23.51 L 96.05 23.51 Q 95.9 23.8 95.54 23.92 L 95.54 23.92 L 95.54 23.92 Q 95.18 24.04 94.56 24.04 L 94.56 24.04 L 94.56 24.04 Q 93.94 24.04 93.57 23.92 L 93.57 23.92 L 93.57 23.92 Q 93.2 23.8 93.05 23.52 L 93.05 23.52 L 93.05 23.52 Q 92.9 23.24 92.87 23.02 L 92.87 23.02 L 92.87 23.02 Q 92.84 22.8 92.84 22.34 Z  M 96.8 12.92 L 96.8 12.92 L 96.8 12.92 Q 96.34 13.46 96.34 14.1 L 96.34 14.1 L 96.34 14.1 Q 96.34 14.74 96.81 15.27 L 96.81 15.27 L 96.81 15.27 Q 97.28 15.8 98.01 15.8 L 98.01 15.8 L 98.01 15.8 Q 98.74 15.8 99.25 15.28 L 99.25 15.28 L 99.25 15.28 Q 99.76 14.76 99.76 14.1 L 99.76 14.1 L 99.76 14.1 Q 99.76 13.44 99.28 12.91 L 99.28 12.91 L 99.28 12.91 Q 98.8 12.38 98.03 12.38 L 98.03 12.38 L 98.03 12.38 Q 97.26 12.38 96.8 12.92 Z  M 111.64 9.06 L 111.64 9.06 L 111.64 9.06 Q 112.02 9.18 112.27 9.47 L 112.27 9.47 L 112.27 9.47 Q 112.52 9.76 112.52 10.4 L 112.52 10.4 L 112.52 10.4 Q 112.52 11.04 112.14 11.8 L 112.14 11.8 L 112.14 11.8 Q 111.76 12.56 111.04 12.56 L 111.04 12.56 L 111.04 12.56 Q 110.68 12.56 110.35 12.4 L 110.35 12.4 L 110.35 12.4 Q 110.02 12.24 109.48 12.24 L 109.48 12.24 L 109.48 12.24 Q 108.94 12.24 108.47 12.62 L 108.47 12.62 L 108.47 12.62 Q 108 13 108 13.54 L 108 13.54 L 108 17.74 L 108 17.74 Q 108 18.2 107.97 18.43 L 107.97 18.43 L 107.97 18.43 Q 107.94 18.66 107.78 18.96 L 107.78 18.96 L 107.78 18.96 Q 107.48 19.48 106.22 19.48 L 106.22 19.48 L 106.22 19.48 Q 105.26 19.48 104.84 19.14 L 104.84 19.14 L 104.84 19.14 Q 104.52 18.86 104.48 18.28 L 104.48 18.28 L 104.48 18.28 Q 104.48 18.08 104.48 17.7 L 104.48 17.7 L 104.48 10.68 L 104.48 10.68 Q 104.48 10.22 104.51 9.99 L 104.51 9.99 L 104.51 9.99 Q 104.54 9.76 104.68 9.48 L 104.68 9.48 L 104.68 9.48 Q 104.96 8.94 106.24 8.94 L 106.24 8.94 L 106.24 8.94 Q 107.44 8.94 107.74 9.4 L 107.74 9.4 L 107.74 9.4 Q 107.96 9.72 107.96 10.06 L 107.96 10.06 L 107.96 10.06 Q 108.06 9.92 108.25 9.72 L 108.25 9.72 L 108.25 9.72 Q 108.44 9.52 109.06 9.18 L 109.06 9.18 L 109.06 9.18 Q 109.68 8.84 110.15 8.84 L 110.15 8.84 L 110.15 8.84 Q 110.62 8.84 110.94 8.89 L 110.94 8.89 L 110.94 8.89 Q 111.26 8.94 111.64 9.06 Z  M 120.46 10.06 L 120.46 10.06 L 120.46 10.06 Q 120.58 8.94 122.04 8.94 L 122.04 8.94 L 122.04 8.94 Q 122.82 8.94 123.2 9.06 L 123.2 9.06 L 123.2 9.06 Q 123.58 9.18 123.73 9.48 L 123.73 9.48 L 123.73 9.48 Q 123.88 9.78 123.91 10.01 L 123.91 10.01 L 123.91 10.01 Q 123.94 10.24 123.94 10.7 L 123.94 10.7 L 123.94 17.7 L 123.94 17.7 Q 123.94 18.16 123.91 18.39 L 123.91 18.39 L 123.91 18.39 Q 123.88 18.62 123.74 18.92 L 123.74 18.92 L 123.74 18.92 Q 123.46 19.44 122.37 19.44 L 122.37 19.44 L 122.37 19.44 Q 121.28 19.44 120.91 19.17 L 120.91 19.17 L 120.91 19.17 Q 120.54 18.9 120.48 18.38 L 120.48 18.38 L 120.48 18.38 Q 119.74 19.44 118.01 19.44 L 118.01 19.44 L 118.01 19.44 Q 116.28 19.44 114.8 17.86 L 114.8 17.86 L 114.8 17.86 Q 113.32 16.28 113.32 14.19 L 113.32 14.19 L 113.32 14.19 Q 113.32 12.1 114.81 10.53 L 114.81 10.53 L 114.81 10.53 Q 116.3 8.96 118.08 8.96 L 118.08 8.96 L 118.08 8.96 Q 118.76 8.96 119.32 9.2 L 119.32 9.2 L 119.32 9.2 Q 119.88 9.44 120.1 9.65 L 120.1 9.65 L 120.1 9.65 Q 120.32 9.86 120.46 10.06 Z  M 116.82 14.22 L 116.82 14.22 L 116.82 14.22 Q 116.82 14.88 117.34 15.41 L 117.34 15.41 L 117.34 15.41 Q 117.86 15.94 118.6 15.94 L 118.6 15.94 L 118.6 15.94 Q 119.34 15.94 119.83 15.4 L 119.83 15.4 L 119.83 15.4 Q 120.32 14.86 120.32 14.21 L 120.32 14.21 L 120.32 14.21 Q 120.32 13.56 119.85 13 L 119.85 13 L 119.85 13 Q 119.38 12.44 118.59 12.44 L 118.59 12.44 L 118.59 12.44 Q 117.8 12.44 117.31 13 L 117.31 13 L 117.31 13 Q 116.82 13.56 116.82 14.22 Z  M 16.38 5.38 L 16.38 5.38 L 16.38 5.38 Q 16.54 5.68 16.57 5.92 L 16.57 5.92 L 16.57 5.92 Q 16.6 6.16 16.6 6.62 L 16.6 6.62 L 16.6 17.72 L 16.6 17.72 Q 16.6 19.1 15.84 19.34 L 15.84 19.34 L 15.84 19.34 Q 15.46 19.46 14.88 19.46 L 14.88 19.46 L 14.88 19.46 Q 14.3 19.46 13.96 19.36 L 13.96 19.36 L 13.96 19.36 Q 13.62 19.26 13.44 19.12 L 13.44 19.12 L 13.44 19.12 Q 13.26 18.98 13.16 18.72 L 13.16 18.72 L 13.16 18.72 Q 13.06 18.38 13.06 17.68 L 13.06 17.68 L 13.06 10.98 L 13.06 10.98 Q 12.56 11.6 11.6 12.95 L 11.6 12.95 L 11.6 12.95 Q 10.64 14.3 10.38 14.64 L 10.38 14.64 L 10.38 14.64 Q 10.12 14.98 10.02 15.11 L 10.02 15.11 L 10.02 15.11 Q 9.92 15.24 9.53 15.47 L 9.53 15.47 L 9.53 15.47 Q 9.14 15.7 8.69 15.7 L 8.69 15.7 L 8.69 15.7 Q 8.24 15.7 7.87 15.49 L 7.87 15.49 L 7.87 15.49 Q 7.5 15.28 7.34 15.08 L 7.34 15.08 L 7.18 14.86 L 7.18 14.86 Q 6.78 14.36 5.6 12.73 L 5.6 12.73 L 5.6 12.73 Q 4.42 11.1 4.32 10.98 L 4.32 10.98 L 4.32 17.72 L 4.32 17.72 Q 4.32 18.18 4.29 18.41 L 4.29 18.41 L 4.29 18.41 Q 4.26 18.64 4.1 18.92 L 4.1 18.92 L 4.1 18.92 Q 3.8 19.46 2.54 19.46 L 2.54 19.46 L 2.54 19.46 Q 1.32 19.46 1.02 18.92 L 1.02 18.92 L 1.02 18.92 Q 0.86 18.64 0.83 18.4 L 0.83 18.4 L 0.83 18.4 Q 0.8 18.16 0.8 17.68 L 0.8 17.68 L 0.8 6.58 L 0.8 6.58 Q 0.8 6.12 0.83 5.89 L 0.83 5.89 L 0.83 5.89 Q 0.86 5.66 1.02 5.36 L 1.02 5.36 L 1.02 5.36 Q 1.32 4.84 2.58 4.84 L 2.58 4.84 L 2.58 4.84 Q 3.12 4.84 3.51 4.97 L 3.51 4.97 L 3.51 4.97 Q 3.9 5.1 4.02 5.24 L 4.02 5.24 L 4.14 5.36 L 8.68 11.32 L 8.68 11.32 Q 12.08 6.82 13.22 5.38 L 13.22 5.38 L 13.22 5.38 Q 13.56 4.84 14.83 4.84 L 14.83 4.84 L 14.83 4.84 Q 16.1 4.84 16.38 5.38 Z  M 28.36 12.95 L 28.36 12.95 L 28.36 12.95 Q 28.36 14.18 27.75 14.77 L 27.75 14.77 L 27.75 14.77 Q 27.14 15.36 26.4 15.36 L 26.4 15.36 L 21.66 15.36 L 21.66 15.36 Q 21.66 15.92 22.32 16.3 L 22.32 16.3 L 22.32 16.3 Q 22.98 16.68 23.64 16.68 L 23.64 16.68 L 23.64 16.68 Q 24.8 16.68 25.46 16.44 L 25.46 16.44 L 25.68 16.36 L 25.68 16.36 Q 26.16 16.14 26.48 16.14 L 26.48 16.14 L 26.48 16.14 Q 27.12 16.14 27.58 17.04 L 27.58 17.04 L 27.58 17.04 Q 27.84 17.58 27.84 17.96 L 27.84 17.96 L 27.84 17.96 Q 27.84 19.74 23.58 19.74 L 23.58 19.74 L 23.58 19.74 Q 22.1 19.74 20.95 19.23 L 20.95 19.23 L 20.95 19.23 Q 19.8 18.72 19.16 17.88 L 19.16 17.88 L 19.16 17.88 Q 17.9 16.26 17.9 14.26 L 17.9 14.26 L 17.9 14.26 Q 17.9 11.74 19.53 10.23 L 19.53 10.23 L 19.53 10.23 Q 21.16 8.72 23.6 8.72 L 23.6 8.72 L 23.6 8.72 Q 26.38 8.72 27.68 10.68 L 27.68 10.68 L 27.68 10.68 Q 28.36 11.72 28.36 12.95 Z  M 21.62 13.54 L 24.14 13.54 L 24.14 13.54 Q 24.9 13.54 24.9 12.9 L 24.9 12.9 L 24.9 12.9 Q 24.9 12.44 24.55 12.16 L 24.55 12.16 L 24.55 12.16 Q 24.2 11.88 23.55 11.88 L 23.55 11.88 L 23.55 11.88 Q 22.9 11.88 22.26 12.41 L 22.26 12.41 L 22.26 12.41 Q 21.62 12.94 21.62 13.54 L 21.62 13.54 L 21.62 13.54 Z  M 39.82 12.95 L 39.82 12.95 L 39.82 12.95 Q 39.82 14.18 39.21 14.77 L 39.21 14.77 L 39.21 14.77 Q 38.6 15.36 37.86 15.36 L 37.86 15.36 L 33.12 15.36 L 33.12 15.36 Q 33.12 15.92 33.78 16.3 L 33.78 16.3 L 33.78 16.3 Q 34.44 16.68 35.1 16.68 L 35.1 16.68 L 35.1 16.68 Q 36.26 16.68 36.92 16.44 L 36.92 16.44 L 37.14 16.36 L 37.14 16.36 Q 37.62 16.14 37.94 16.14 L 37.94 16.14 L 37.94 16.14 Q 38.58 16.14 39.04 17.04 L 39.04 17.04 L 39.04 17.04 Q 39.3 17.58 39.3 17.96 L 39.3 17.96 L 39.3 17.96 Q 39.3 19.74 35.04 19.74 L 35.04 19.74 L 35.04 19.74 Q 33.56 19.74 32.41 19.23 L 32.41 19.23 L 32.41 19.23 Q 31.26 18.72 30.62 17.88 L 30.62 17.88 L 30.62 17.88 Q 29.36 16.26 29.36 14.26 L 29.36 14.26 L 29.36 14.26 Q 29.36 11.74 30.99 10.23 L 30.99 10.23 L 30.99 10.23 Q 32.62 8.72 35.06 8.72 L 35.06 8.72 L 35.06 8.72 Q 37.84 8.72 39.14 10.68 L 39.14 10.68 L 39.14 10.68 Q 39.82 11.72 39.82 12.95 Z  M 33.08 13.54 L 35.6 13.54 L 35.6 13.54 Q 36.36 13.54 36.36 12.9 L 36.36 12.9 L 36.36 12.9 Q 36.36 12.44 36.01 12.16 L 36.01 12.16 L 36.01 12.16 Q 35.66 11.88 35.01 11.88 L 35.01 11.88 L 35.01 11.88 Q 34.36 11.88 33.72 12.41 L 33.72 12.41 L 33.72 12.41 Q 33.08 12.94 33.08 13.54 L 33.08 13.54 L 33.08 13.54 Z  M 47.24 12.48 L 47.24 12.48 L 45.94 12.4 L 45.94 15.16 L 45.94 15.16 Q 45.94 15.7 46.11 15.94 L 46.11 15.94 L 46.11 15.94 Q 46.28 16.18 46.75 16.18 L 46.75 16.18 L 46.75 16.18 Q 47.22 16.18 47.47 16.21 L 47.47 16.21 L 47.47 16.21 Q 47.72 16.24 48 16.4 L 48 16.4 L 48 16.4 Q 48.46 16.66 48.46 17.74 L 48.46 17.74 L 48.46 17.74 Q 48.46 19 47.9 19.28 L 47.9 19.28 L 47.9 19.28 Q 47.6 19.42 47.37 19.45 L 47.37 19.45 L 47.37 19.45 Q 47.14 19.48 46.7 19.48 L 46.7 19.48 L 46.7 19.48 Q 44.62 19.48 43.54 18.54 L 43.54 18.54 L 43.54 18.54 Q 42.46 17.6 42.46 15.36 L 42.46 15.36 L 42.46 12.4 L 42.46 12.4 Q 42.08 12.46 41.64 12.46 L 41.64 12.46 L 41.64 12.46 Q 41.2 12.46 40.91 12.12 L 40.91 12.12 L 40.91 12.12 Q 40.62 11.78 40.62 10.96 L 40.62 10.96 L 40.62 10.96 Q 40.62 10.14 40.72 9.77 L 40.72 9.77 L 40.72 9.77 Q 40.82 9.4 41 9.24 L 41 9.24 L 41 9.24 Q 41.32 8.98 41.8 8.98 L 41.8 8.98 L 42.46 9.06 L 42.46 7 L 42.46 7 Q 42.46 6.54 42.49 6.32 L 42.49 6.32 L 42.49 6.32 Q 42.52 6.1 42.68 5.84 L 42.68 5.84 L 42.68 5.84 Q 42.94 5.34 44.22 5.34 L 44.22 5.34 L 44.22 5.34 Q 45.58 5.34 45.84 6.08 L 45.84 6.08 L 45.84 6.08 Q 45.94 6.4 45.94 7.1 L 45.94 7.1 L 45.94 9.06 L 45.94 9.06 Q 46.82 8.98 47.27 8.98 L 47.27 8.98 L 47.27 8.98 Q 47.72 8.98 47.95 9.01 L 47.95 9.01 L 47.95 9.01 Q 48.18 9.04 48.48 9.2 L 48.48 9.2 L 48.48 9.2 Q 49 9.46 49 10.74 L 49 10.74 L 49 10.74 Q 49 12 48.46 12.28 L 48.46 12.28 L 48.46 12.28 Q 48.16 12.42 47.93 12.45 L 47.93 12.45 L 47.93 12.45 Q 47.7 12.48 47.24 12.48 Z " fill-rule="evenodd" fill="rgb(221,81,70)"/></g></svg>
